<?xml version="1.0" standalone="no"?><!DOCTYPE svg PUBLIC "-//W3C//DTD SVG 1.1//EN" "http://www.w3.org/Graphics/SVG/1.1/DTD/svg11.dtd"><svg width="960" height="500" version="1.1" xmlns="http://www.w3.org/2000/svg" xmlns:xlink="http://www.w3.org/1999/xlink"><defs xmlns="http://www.w3.org/1999/xhtml"><style type="text/css"><![CDATA[
body { font-style: normal; font-variant: normal; font-weight: normal; font-stretch: normal; font-size: 10px; line-height: normal; font-family: sans-serif; }
.axis line, .axis path { fill: none; stroke: rgb(0, 0, 0); shape-rendering: crispEdges; }
.arrow { stroke: rgb(0, 0, 0); stroke-width: 1.5px; }
.outer, .inner { shape-rendering: crispEdges; }
.outer { fill: none; stroke: rgb(0, 0, 0); }
.inner { fill: rgb(204, 204, 204); stroke: rgb(0, 0, 0); stroke-dasharray: 3, 4; }]]></style></defs><g transform="translate(20,20)"><defs><marker id="triangle-start" viewBox="0 0 10 10" refX="10" refY="5" markerWidth="-6" markerHeight="6" orient="auto"><path d="M 0 0 L 10 5 L 0 10 z"/></marker><marker id="triangle-end" viewBox="0 0 10 10" refX="10" refY="5" markerWidth="6" markerHeight="6" orient="auto"><path d="M 0 0 L 10 5 L 0 10 z"/></marker></defs><rect class="outer" width="920" height="460"/><g transform="translate(60,60)"><rect class="inner" width="800" height="340"/><g class="x axis" transform="translate(0,340)"><g class="tick" transform="translate(0,0)" style="opacity: 1;"><line y2="6" x2="0"/><text dy=".71em" y="9" x="0" style="text-anchor: middle;">0</text></g><g class="tick" transform="translate(100,0)" style="opacity: 1;"><line y2="6" x2="0"/><text dy=".71em" y="9" x="0" style="text-anchor: middle;">100</text></g><g class="tick" transform="translate(200,0)" style="opacity: 1;"><line y2="6" x2="0"/><text dy=".71em" y="9" x="0" style="text-anchor: middle;">200</text></g><g class="tick" transform="translate(300,0)" style="opacity: 1;"><line y2="6" x2="0"/><text dy=".71em" y="9" x="0" style="text-anchor: middle;">300</text></g><g class="tick" transform="translate(400,0)" style="opacity: 1;"><line y2="6" x2="0"/><text dy=".71em" y="9" x="0" style="text-anchor: middle;">400</text></g><g class="tick" transform="translate(500,0)" style="opacity: 1;"><line y2="6" x2="0"/><text dy=".71em" y="9" x="0" style="text-anchor: middle;">500</text></g><g class="tick" transform="translate(600,0)" style="opacity: 1;"><line y2="6" x2="0"/><text dy=".71em" y="9" x="0" style="text-anchor: middle;">600</text></g><g class="tick" transform="translate(700,0)" style="opacity: 1;"><line y2="6" x2="0"/><text dy=".71em" y="9" x="0" style="text-anchor: middle;">700</text></g><g class="tick" transform="translate(800,0)" style="opacity: 1;"><line y2="6" x2="0"/><text dy=".71em" y="9" x="0" style="text-anchor: middle;">800</text></g><path class="domain" d="M0,6V0H800V6"/></g><g class="y axis" transform="translate(800,0)"><g class="tick" transform="translate(0,0)" style="opacity: 1;"><line x2="6" y2="0"/><text dy=".32em" x="9" y="0" style="text-anchor: start;">0</text></g><g class="tick" transform="translate(0,50)" style="opacity: 1;"><line x2="6" y2="0"/><text dy=".32em" x="9" y="0" style="text-anchor: start;">50</text></g><g class="tick" transform="translate(0,100)" style="opacity: 1;"><line x2="6" y2="0"/><text dy=".32em" x="9" y="0" style="text-anchor: start;">100</text></g><g class="tick" transform="translate(0,150)" style="opacity: 1;"><line x2="6" y2="0"/><text dy=".32em" x="9" y="0" style="text-anchor: start;">150</text></g><g class="tick" transform="translate(0,200)" style="opacity: 1;"><line x2="6" y2="0"/><text dy=".32em" x="9" y="0" style="text-anchor: start;">200</text></g><g class="tick" transform="translate(0,250)" style="opacity: 1;"><line x2="6" y2="0"/><text dy=".32em" x="9" y="0" style="text-anchor: start;">250</text></g><g class="tick" transform="translate(0,300)" style="opacity: 1;"><line x2="6" y2="0"/><text dy=".32em" x="9" y="0" style="text-anchor: start;">300</text></g><path class="domain" d="M6,0H0V340H6"/></g><text y="-8">translate(margin.left, margin.top)</text></g><line class="arrow" x2="60" y2="60" marker-end="url(#triangle-end)"/><line class="arrow" x1="460" x2="460" y2="60" marker-end="url(#triangle-end)"/><line class="arrow" x1="460" x2="460" y1="400" y2="460" marker-start="url(#triangle-start)"/><line class="arrow" x2="60" y1="230" y2="230" marker-end="url(#triangle-end)"/><line class="arrow" x1="920" x2="860" y1="230" y2="230" marker-end="url(#triangle-end)"/><text y="-8">origin</text><circle class="origin" r="4.5"/></g></svg>